<svg xmlns="http://www.w3.org/2000/svg" viewBox="0 0 320 250" fill="none">
  <g opacity=".94">
    <path d="M-18 15C64 31 119 78 146 151" stroke="#315d48" stroke-width="5" stroke-linecap="round"/>
    <path d="M23 30C35 1 62-7 82 3 72 29 51 42 23 30Z" fill="#264f3d"/>
    <path d="M58 52C76 25 109 24 126 43 107 66 82 71 58 52Z" fill="#4e7655"/>
    <path d="M89 84C113 62 145 69 157 92 133 109 107 106 89 84Z" fill="#76956b"/>
    <path d="M111 119C138 103 168 116 175 142 147 153 124 145 111 119Z" fill="#3f6c50"/>
    <path d="M37 57C6 53-11 71-10 95 20 97 40 83 37 57Z" fill="#64845e"/>
    <path d="M67 91C34 91 18 115 24 138 55 134 73 117 67 91Z" fill="#315d48"/>
    <path d="M99 130C67 137 57 165 69 185 99 173 112 152 99 130Z" fill="#83a477"/>
    <circle cx="174" cy="156" r="3" fill="#b69548"/>
    <circle cx="205" cy="108" r="2.5" fill="#b69548"/>
  </g>
</svg>
